# xmcd
#
# Track frame offsets: 
#        150
#        12792
#        26421
#        39046
#        50901
#        62470
#        74158
#        85602
#        96223
#        102811
#        114504
#        127241
#        140906
#        150267
#
# Disc length: 2176 seconds
#
# Revision: 0
# Processed by: cddbd v1.5.2PL0 Copyright (c) Steve Scherf et al.
# Submitted via: ExactAudioCopy v0.95b4
#
DISCID=b6087e0e
DTITLE=Roy Rogers - A Cowboy Has to Sing CD 03
DYEAR=2006
DGENRE=Country
TTITLE0=Blue Shadows on the Trail
TTITLE1=(There'll Never Be Another) Pecos Bill
TTITLE2=Don't Fence Me In
TTITLE3=Home on the Range
TTITLE4=Yellow Rose of Texas
TTITLE5=San Fernando Valley
TTITLE6=Roll On, Texas Moon
TTITLE7=Hawaiian Cowboy
TTITLE8=Candy Kisses wi/ Dale Evans and Foy Willing
TTITLE9=Stampede
TTITLE10=A Four-Legged Friend
TTITLE11=California Rose
TTITLE12=The Strawberry Roan w/Dale Evans
TTITLE13=Happy Trails w/ Dale Evans
EXTD=
EXTT0=
EXTT1=
EXTT2=
EXTT3=
EXTT4=
EXTT5=
EXTT6=
EXTT7=
EXTT8=
EXTT9=
EXTT10=
EXTT11=
EXTT12=
EXTT13=
PLAYORDER=
